<?xml version="1.0" standalone="no"?><!DOCTYPE svg PUBLIC "-//W3C//DTD SVG 1.1//EN" "http://www.w3.org/Graphics/SVG/1.1/DTD/svg11.dtd"><svg t="1630571979817" class="icon" viewBox="0 0 1024 1024" version="1.1" xmlns="http://www.w3.org/2000/svg" p-id="1310" xmlns:xlink="http://www.w3.org/1999/xlink" width="200" height="200"><defs><style type="text/css"></style></defs><path d="M929.762738 381.063429l-159.859544-148.511095a292.499876 292.499876 0 0 0-394.977225-3.626384L205.339183 380.850112a154.867933 154.867933 0 0 0-51.196011 115.191025v362.638411a126.582137 126.582137 0 0 0 125.98485 127.13676h572.840699a126.582137 126.582137 0 0 0 125.984851-127.13676v-364.216955a154.398636 154.398636 0 0 0-49.190834-113.399164z" fill="#557FFC" p-id="1311"></path><path d="M934.797012 447.57558l-143.60481-132.256362a264.512723 264.512723 0 0 0-354.788357-3.242414l-152.308132 135.242796a137.333299 137.333299 0 0 0-46.161737 102.733328v322.748186a113.228511 113.228511 0 0 0 113.228511 113.228511h514.818554a113.228511 113.228511 0 0 0 113.228511-113.228511v-324.241403a137.162646 137.162646 0 0 0-44.369876-100.984131z" fill="#4876FF" p-id="1312"></path><path d="M939.959277 516.220898L812.950506 399.323339a233.923107 233.923107 0 0 0-313.703557-2.858444l-134.688172 119.457359a121.462536 121.462536 0 0 0-40.828819 90.787593v285.332435a100.130865 100.130865 0 0 0 100.130865 100.130865h455.217864a100.130865 100.130865 0 0 0 100.130865-100.130865v-286.441682a121.419873 121.419873 0 0 0-39.207612-89.294376z" fill="#3E6EFF" p-id="1313"></path><path d="M836.628661 1024H187.121935A180.721919 180.721919 0 0 1 6.613333 843.491398v-407.136277a211.226209 211.226209 0 0 1 70.906476-157.854368L296.724062 83.913248a330.470251 330.470251 0 0 1 444.509366 4.010355l207.770477 191.259764a211.482189 211.482189 0 0 1 68.261348 155.251903v408.885475a180.636592 180.636592 0 0 1-180.508602 180.508602z m-319.975068-948.448767A255.596085 255.596085 0 0 0 346.640173 140.356851L127.435919 334.944356a135.584102 135.584102 0 0 0-45.56445 101.368101v407.008288a105.207803 105.207803 0 0 0 105.079813 105.079812h649.549389a105.207803 105.207803 0 0 0 105.079813-105.079812v-408.842811a136.010736 136.010736 0 0 0-43.729926-99.746895l-207.770478-191.259764a255.340105 255.340105 0 0 0-173.383824-67.920042z" fill="#262E49" p-id="1314"></path><path d="M503.427957 794.001921a185.20157 185.20157 0 1 1 185.201569-185.20157 185.414886 185.414886 0 0 1-185.201569 185.20157z m0-294.377063a109.218157 109.218157 0 1 0 109.218156 109.218156 109.346147 109.346147 0 0 0-109.218156-109.303483z" fill="#262E49" p-id="1315"></path></svg>