<svg class="icon" viewBox="0 0 1024 1024" xmlns="http://www.w3.org/2000/svg" width="200" height="200"><defs/><path d="M929.763 381.063l-159.86-148.51a292.5 292.5 0 00-394.977-3.627L205.339 380.85a154.868 154.868 0 00-51.196 115.191V858.68a126.582 126.582 0 00125.985 127.136h572.84A126.582 126.582 0 00978.955 858.68V494.463a154.399 154.399 0 00-49.191-113.4z" fill="#333"/><path d="M934.797 447.576L791.192 315.319a264.513 264.513 0 00-354.788-3.242L284.096 447.32a137.333 137.333 0 00-46.162 102.733V872.8A113.229 113.229 0 00351.162 986.03h514.819A113.229 113.229 0 00979.21 872.8V548.56a137.163 137.163 0 00-44.37-100.984z" fill="#444"/><path d="M939.96 516.22L812.95 399.324a233.923 233.923 0 00-313.703-2.858L364.559 515.922a121.463 121.463 0 00-40.829 90.788v285.332a100.13 100.13 0 00100.13 100.131H879.08a100.13 100.13 0 00100.13-100.13V605.6a121.42 121.42 0 00-39.207-89.295z" fill="#fff"/><path d="M836.629 1024H187.122A180.722 180.722 0 016.613 843.491V436.355A211.226 211.226 0 0177.52 278.501L296.724 83.913a330.47 330.47 0 01444.51 4.01l207.77 191.26a211.482 211.482 0 0168.261 155.252v408.886a180.637 180.637 0 01-180.508 180.508zM516.654 75.551a255.596 255.596 0 00-170.014 64.806L127.436 334.944A135.584 135.584 0 0081.87 436.312v407.009a105.208 105.208 0 00105.08 105.08h649.55a105.208 105.208 0 00105.08-105.08V434.478a136.01 136.01 0 00-43.73-99.747l-207.77-191.26a255.34 255.34 0 00-173.385-67.92z" fill="#262E49"/><path d="M503.428 794.002A185.202 185.202 0 11688.63 608.8a185.415 185.415 0 01-185.202 185.202zm0-294.377a109.218 109.218 0 10109.218 109.218A109.346 109.346 0 00503.428 499.54z" fill="#262E49"/></svg>