<svg class="icon" viewBox="0 0 1024 1024" xmlns="http://www.w3.org/2000/svg" width="200" height="200"><defs/><path d="M965 28.1H223.2c-29.3 0-53 23.7-53 53v741.8c0 29.3 23.7 53 53 53H965c29.3 0 53-23.7 53-53V81.1c0-29.3-23.7-53-53-53z" fill="#4468F6"/><path d="M919.9 81.1H435.1c-43.8 0-79.5 35.7-79.5 79.5v130.3c0 43.8 35.7 79.5 79.5 79.5h484.8c43.8 0 79.5-35.7 79.5-79.5V160.6c0-43.9-35.7-79.5-79.5-79.5zm26.5 209.8c0 14.6-11.9 26.5-26.5 26.5H435.1c-14.6 0-26.5-11.9-26.5-26.5V160.6c0-14.6 11.9-26.5 26.5-26.5h484.8c14.6 0 26.5 11.9 26.5 26.5v130.3zm-26.5 109.2H435.1c-43.8 0-79.5 35.7-79.5 79.5v130.3c0 43.8 35.7 79.5 79.5 79.5h484.8c43.8 0 79.5-35.7 79.5-79.5V479.6c0-43.9-35.7-79.5-79.5-79.5zm26.5 209.8c0 14.6-11.9 26.5-26.5 26.5H435.1c-14.6 0-26.5-11.9-26.5-26.5V479.6c0-14.6 11.9-26.5 26.5-26.5h484.8c14.6 0 26.5 11.9 26.5 26.5v130.3zm-26.5 109.2H435.1c-43.8 0-79.5 35.7-79.5 79.5v130.3c0 43.8 35.7 79.5 79.5 79.5h484.8c43.8 0 79.5-35.7 79.5-79.5V798.6c0-43.9-35.7-79.5-79.5-79.5zm26.5 209.8c0 14.6-11.9 26.5-26.5 26.5H435.1c-14.6 0-26.5-11.9-26.5-26.5V798.6c0-14.6 11.9-26.5 26.5-26.5h484.8c14.6 0 26.5 11.9 26.5 26.5v130.3zM212.8 81.1H82.5C38.6 81.1 3 116.7 3 160.6v130.3c0 43.8 35.7 79.5 79.5 79.5h130.3c43.8 0 79.5-35.7 79.5-79.5V160.6c0-43.9-35.7-79.5-79.5-79.5zm26.5 209.8c0 14.6-11.9 26.5-26.5 26.5H82.5c-14.6 0-26.5-11.9-26.5-26.5V160.6c0-14.6 11.9-26.5 26.5-26.5h130.3c14.6 0 26.5 11.9 26.5 26.5v130.3zm-26.5 109.2H82.5C38.6 400.1 3 435.7 3 479.6v130.3c0 43.8 35.7 79.5 79.5 79.5h130.3c43.8 0 79.5-35.7 79.5-79.5V479.6c0-43.9-35.7-79.5-79.5-79.5zm26.5 209.8c0 14.6-11.9 26.5-26.5 26.5H82.5c-14.6 0-26.5-11.9-26.5-26.5V479.6c0-14.6 11.9-26.5 26.5-26.5h130.3c14.6 0 26.5 11.9 26.5 26.5v130.3zm-26.5 109.2H82.5C38.6 719.1 3 754.7 3 798.6v130.3c0 43.8 35.7 79.5 79.5 79.5h130.3c43.8 0 79.5-35.7 79.5-79.5V798.6c0-43.9-35.7-79.5-79.5-79.5zm26.5 209.8c0 14.6-11.9 26.5-26.5 26.5H82.5c-14.6 0-26.5-11.9-26.5-26.5V798.6c0-14.6 11.9-26.5 26.5-26.5h130.3c14.6 0 26.5 11.9 26.5 26.5v130.3z" fill="#444"/></svg>