<?xml version="1.0" standalone="no"?><!DOCTYPE svg PUBLIC "-//W3C//DTD SVG 1.1//EN" "http://www.w3.org/Graphics/SVG/1.1/DTD/svg11.dtd"><svg t="1630631676710" class="icon" viewBox="0 0 1024 1024" version="1.1" xmlns="http://www.w3.org/2000/svg" p-id="23139" xmlns:xlink="http://www.w3.org/1999/xlink" width="200" height="200"><defs><style type="text/css"></style></defs><path d="M265.728 650.752m-265.728 0a265.728 265.728 0 1 0 531.456 0 265.728 265.728 0 1 0-531.456 0Z" fill="#4A94FF" p-id="23140"></path><path d="M512.512 329.728c0-19.968-12.288-35.84-27.648-35.84H145.408c-15.36 0-27.648 15.872-27.648 35.84s12.288 35.84 27.648 35.84h339.456c15.36 0 27.648-16.384 27.648-35.84zM460.8 497.664c0-19.968-12.288-35.84-27.648-35.84H145.408c-15.36 0-27.648 15.872-27.648 35.84s12.288 35.84 27.648 35.84h287.744c15.36 0 27.648-15.872 27.648-35.84zM581.12 667.136c0-19.968-12.288-35.84-27.648-35.84H145.408c-15.36 0-27.648 15.872-27.648 35.84s12.288 35.84 27.648 35.84h408.064c15.36 0 27.648-15.872 27.648-35.84zM742.4 198.656H134.656c-5.632 0-10.752-4.608-10.752-10.752V138.24c0-5.632 4.608-10.752 10.752-10.752H742.4c5.632 0 10.752 4.608 10.752 10.752v49.664c0 6.144-4.608 10.752-10.752 10.752z" p-id="23141"></path><path d="M885.76 563.2c23.04-31.744 35.84-69.632 35.84-108.544 0-101.888-82.944-184.832-184.832-184.832s-184.832 82.944-184.832 184.832 82.944 184.832 184.832 184.832c38.912 0 77.312-12.288 108.544-35.84l98.304 98.304c5.12 5.12 12.8 8.192 19.968 8.192 7.68 0 14.848-3.072 19.968-8.192s8.192-12.8 8.192-19.968c0-7.68-3.072-14.848-8.192-19.968L885.76 563.2z" fill="#FFFFFF" p-id="23142"></path><path d="M609.28 454.656c0-70.656 57.344-128 128-128s128 57.344 128 128-57.344 128-128 128-128-57.344-128-128z" fill="#FFFFFF" p-id="23143"></path><path d="M915.456 585.216c23.552-32.256 36.352-71.168 36.352-110.592 0-103.936-84.48-188.416-188.416-188.416s-188.416 84.48-188.416 188.416 84.48 188.416 188.416 188.416c39.936 0 78.848-12.8 110.592-36.352l100.352 100.352c5.632 5.632 12.8 8.704 20.48 8.704s14.848-3.072 20.48-8.704 8.704-12.8 8.704-20.48-3.072-14.848-8.704-20.48l-99.84-100.864z m-282.112-110.592c0-71.68 58.368-130.048 130.048-130.048s130.048 58.368 130.048 130.048-58.368 130.048-130.048 130.048-130.048-58.368-130.048-130.048z" p-id="23144"></path></svg>