<svg class="icon" viewBox="0 0 1024 1024" xmlns="http://www.w3.org/2000/svg" width="200" height="200"><defs/><path d="M760.832 966.656c82.432 0 149.504-66.56 149.504-149.504v-25.088c0-61.952-32.256-115.712-80.384-146.944H383.488c-96.256 0-174.08 77.824-174.08 174.08v25.088c0 50.176 25.088 94.72 63.488 121.856h487.936zm0-647.168V97.792H607.744c-137.728 0-248.832 111.616-248.832 248.832 0 96.256 54.272 179.2 134.144 220.672 6.144.512 12.8 1.024 19.456 1.024 137.216 0 248.32-111.616 248.32-248.832z" fill="#f1f1f1"/><path d="M760.832 985.6H263.168c-96.256 0-175.104-78.336-175.104-175.104v-25.088c0-53.248 20.48-103.424 58.368-141.312 37.888-37.888 88.064-58.368 141.312-58.368H483.84C345.6 571.904 237.056 454.656 237.056 312.832 237.056 161.28 360.448 38.4 511.488 38.4H785.92v274.432c0 141.824-108.544 259.072-246.784 272.896h196.096c110.08 0 199.68 89.6 199.68 199.68v25.088c1.024 96.768-77.824 175.104-174.08 175.104zM288.256 637.44c-39.936 0-77.312 15.36-104.96 43.52-28.16 28.16-43.52 65.536-43.52 104.96v25.088c0 68.096 55.296 123.904 123.904 123.904h497.664c68.096 0 123.904-55.296 123.904-123.904V785.92c0-81.92-66.56-148.48-148.48-148.48H288.256zM512 89.6c-122.88 0-223.232 100.352-223.232 223.232S389.12 536.064 512 536.064s223.232-100.352 223.232-223.232V89.6H512z" fill="#333"/></svg>