<svg class="icon" viewBox="0 0 1024 1024" xmlns="http://www.w3.org/2000/svg" width="200" height="200"><defs/><path d="M202.41899999999998 548.673a381.023 381.023 0 10762.046 0 381.023 381.023 0 10-762.046 0z" fill="#4468F6"/><path d="M512 .953c275.813 0 500.093 224.28 500.093 500.093S787.813 1001.139 512 1001.139H147.504a46.056 46.056 0 01-41.246-26.291 44.937 44.937 0 016.192-48.461l38.65-78.896A499.617 499.617 0 0111.907 501.046C11.907 225.232 236.187.953 512 .953zm-.524 73.204c-235.591 0-426.865 191.273-426.865 426.889 0 109.806 42.77 216.016 119.07 295.412 34.554 35.578 31.458 84.54 12.383 131.453h295.412c235.615 0 426.89-191.25 426.89-426.865S747.09 74.156 511.475 74.156z" fill="#515151"/><path d="M702.512 392.954c0 9.24-3.739 18.099-10.383 24.6a35.769 35.769 0 01-25.052 10.192H356.924c-19.575 0-35.436-15.574-35.436-34.768 0-19.242 15.86-34.816 35.436-34.816h310.153c9.406 0 18.408 3.667 25.052 10.192 6.668 6.525 10.383 15.384 10.383 24.6zM564.105 609.137c0 9.216-3.715 18.075-10.359 24.6a35.769 35.769 0 01-25.076 10.192H356.9c-19.551 0-35.412-15.574-35.412-34.792s15.86-34.816 35.436-34.816H528.67c9.406 0 18.408 3.667 25.076 10.192 6.644 6.526 10.36 15.384 10.359 24.624z" fill="#515151"/></svg>