<?xml version="1.0" standalone="no"?>
<!DOCTYPE svg PUBLIC "-//W3C//DTD SVG 1.1//EN" "http://www.w3.org/Graphics/SVG/1.1/DTD/svg11.dtd"><svg t="1630572088242" class="icon" viewBox="0 0 1024 1024" version="1.1" xmlns="http://www.w3.org/2000/svg" p-id="7544" xmlns:xlink="http://www.w3.org/1999/xlink" width="200" height="200">
  <defs>
    <style type="text/css"></style>
  </defs>
  <path d="M583.44198 548.673488m-381.023256 0a381.023256 381.023256 0 1 0 762.046511 0 381.023256 381.023256 0 1 0-762.046511 0Z" fill="#f1f1f1" p-id="7545"></path>
  <path d="M512.000119 0.952558c275.813209 0 500.093023 224.279814 500.093023 500.093023s-224.279814 500.093023-500.093023 500.093024H147.503747a46.056186 46.056186 0 0 1-41.245767-26.290605 44.93693 44.93693 0 0 1 6.191627-48.461395l38.650047-78.895628A499.616744 499.616744 0 0 1 11.907096 501.045581C11.907096 225.232372 236.18691 0.952558 512.000119 0.952558z m-0.523907 73.204093C275.88477 74.156651 84.611096 265.430326 84.611096 501.045581c0 109.80614 42.76986 216.016372 119.069767 295.412093 34.554047 35.578047 31.458233 84.539535 12.383256 131.453024h295.412093c235.615256 0 426.88893-191.24986 426.88893-426.865117S747.091468 74.156651 511.476212 74.156651z" fill="#515151" p-id="7546"></path>
  <path d="M702.511747 392.954047c0 9.239814-3.738791 18.098605-10.382884 24.599813a35.768558 35.768558 0 0 1-25.052279 10.192373H356.923654c-19.57507 0-35.435163-15.574326-35.435163-34.768373 0-19.241674 15.860093-34.816 35.435163-34.816h310.15293c9.406512 0 18.408186 3.667349 25.052279 10.192373 6.667907 6.525023 10.382884 15.383814 10.382884 24.599814z m-138.406698 216.183069c0 9.216-3.714977 18.074791-10.359069 24.599814A35.768558 35.768558 0 0 1 528.669887 643.929302h-171.770047C337.348584 643.929302 321.488491 628.354977 321.488491 609.137116s15.860093-34.816 35.435163-34.816H528.669887c9.406512 0 18.408186 3.667349 25.076093 10.192372 6.644093 6.525023 10.35907 15.383814 10.359069 24.623628z" fill="#515151" p-id="7547"></path>
</svg>