<?xml version="1.0" standalone="no"?><!DOCTYPE svg PUBLIC "-//W3C//DTD SVG 1.1//EN" "http://www.w3.org/Graphics/SVG/1.1/DTD/svg11.dtd"><svg t="1630631961738" class="icon" viewBox="0 0 1024 1024" version="1.1" xmlns="http://www.w3.org/2000/svg" p-id="25679" xmlns:xlink="http://www.w3.org/1999/xlink" width="200" height="200"><defs><style type="text/css"></style></defs><path d="M532.55888 490.30592m-291.856422 0a291.856422 291.856422 0 1 0 583.712844 0 291.856422 291.856422 0 1 0-583.712844 0Z" fill="#FFD830" p-id="25680"></path><path d="M442.69091 0a442.69091 442.69091 0 1 0 442.690909 442.69091A442.583669 442.583669 0 0 0 442.69091 0z m0 782.215963a339.525053 339.525053 0 1 1 339.471432-339.525053 340.490222 340.490222 0 0 1-339.471432 339.525053z" fill="#0C1728" p-id="25681"></path><path d="M998.252987 998.252987a88.849181 88.849181 0 0 1-125.096644 0l-187.939878-188.10074a88.436303 88.436303 0 1 1 124.882162-125.257505l188.15436 188.15436a88.79556 88.79556 0 0 1 0 125.203885z" fill="#0C1728" p-id="25682"></path></svg>