<?xml version="1.0" standalone="no"?><!DOCTYPE svg PUBLIC "-//W3C//DTD SVG 1.1//EN" "http://www.w3.org/Graphics/SVG/1.1/DTD/svg11.dtd"><svg t="1630572450181" class="icon" viewBox="0 0 1024 1024" version="1.1" xmlns="http://www.w3.org/2000/svg" p-id="24790" xmlns:xlink="http://www.w3.org/1999/xlink" width="200" height="200"><defs><style type="text/css"></style></defs><path d="M442.196273 381.773913m-346.474534 0a346.474534 346.474534 0 1 0 692.949068 0 346.474534 346.474534 0 1 0-692.949068 0Z" fill="#95C5F4" p-id="24791"></path><path d="M403.239752 786.285714c-102.4 0-198.598758-39.910559-270.946584-112.258385-72.347826-72.347826-112.258385-168.546584-112.258385-270.946584S59.945342 204.640994 132.293168 132.134161c72.347826-72.347826 168.546584-112.258385 270.946584-112.258385S601.838509 59.786335 674.186335 132.134161c72.347826 72.347826 112.258385 168.546584 112.258385 270.946584 0 91.746584-32.914286 180.313043-92.541614 249.798758-5.724224 6.678261-11.607453 13.038509-17.808696 19.398758-4.929193 4.929193-13.038509 5.088199-17.967702 0.159006-4.929193-4.929193-5.088199-13.038509-0.159006-17.967702 5.724224-5.88323 11.289441-11.925466 16.695652-18.126708 55.81118-64.715528 86.499379-147.557764 86.499379-233.262112 0-197.167702-160.437267-357.763975-357.763975-357.763975-197.167702 0-357.763975 160.437267-357.763975 357.763975s160.437267 357.763975 357.763975 357.763975c42.613665 0 84.273292-7.473292 123.865838-22.101863 6.519255-2.385093 13.83354 0.954037 16.37764 7.473292 2.385093 6.519255-0.954037 13.83354-7.473292 16.37764-42.613665 15.741615-87.29441 23.691925-132.929192 23.691925z" fill="#2F7EF2" p-id="24792"></path><path d="M991.24472 1003.965217c-3.180124 0-6.519255-1.27205-8.904347-3.657142L653.83354 676.09441c-4.929193-4.929193-5.088199-13.038509-0.159006-17.967702 4.929193-4.929193 13.038509-5.088199 17.967702-0.159006L1000.149068 982.181366c4.929193 4.929193 5.088199 13.038509 0.159007 17.967702-2.544099 2.544099-5.88323 3.816149-9.063355 3.816149zM378.434783 676.889441h-1.27205c-67.895652-6.360248-130.703106-37.684472-176.973913-88.089441-46.58882-50.722981-72.18882-116.710559-72.18882-185.560248 0-6.996273 5.724224-12.720497 12.720497-12.720497s12.720497 5.724224 12.720497 12.720497c0 129.590062 97.152795 236.442236 225.947826 248.367701 6.996273 0.636025 12.084472 6.837267 11.448447 13.833541-0.318012 6.519255-5.88323 11.448447-12.402484 11.448447zM438.698137 685.634783c-11.76646 0-21.306832-9.540373-21.306833-21.306833s9.540373-21.306832 21.306833-21.306832 21.306832 9.540373 21.306832 21.306832c0.159006 11.607453-9.540373 21.306832-21.306832 21.306833z m0-25.440994c-2.226087 0-4.134161 1.749068-4.134162 4.134161 0 2.226087 1.749068 4.134161 4.134162 4.134162 2.226087 0 4.134161-1.749068 4.134161-4.134162s-1.908075-4.134161-4.134161-4.134161z" fill="#2F7EF2" p-id="24793"></path></svg>