<?xml version="1.0" standalone="no"?><!DOCTYPE svg PUBLIC "-//W3C//DTD SVG 1.1//EN" "http://www.w3.org/Graphics/SVG/1.1/DTD/svg11.dtd"><svg t="1630572497400" class="icon" viewBox="0 0 1024 1024" version="1.1" xmlns="http://www.w3.org/2000/svg" p-id="26566" xmlns:xlink="http://www.w3.org/1999/xlink" width="200" height="200"><defs><style type="text/css"></style></defs><path d="M1005.628674 530.220163a493.653255 493.653255 0 1 1-85.322785-277.54283A491.093571 491.093571 0 0 1 1005.628674 530.220163z" fill="#B6E0FF" p-id="26567"></path><path d="M103.644949 475.369801v332.393192a493.653255 493.653255 0 0 0 816.66094 0V170.64557a97.511754 97.511754 0 0 0-97.511754-97.511754H201.156703a97.511754 97.511754 0 0 0-97.511754 97.511754v304.724231z" fill="#4EACF9" p-id="26568"></path><path d="M103.644949 310.818716h816.66094v164.551085H103.644949z" fill="#335FFF" p-id="26569"></path><path d="M271.243276 204.165235m-57.897604 0a57.897604 57.897604 0 1 0 115.795208 0 57.897604 57.897604 0 1 0-115.795208 0Z" fill="#335FFF" p-id="26570"></path><path d="M508.928176 204.165235m-57.897604 0a57.897604 57.897604 0 1 0 115.795208 0 57.897604 57.897604 0 1 0-115.795208 0Z" fill="#335FFF" p-id="26571"></path><path d="M746.613077 204.165235m-57.897604 0a57.897604 57.897604 0 1 0 115.795208 0 57.897604 57.897604 0 1 0-115.795208 0Z" fill="#335FFF" p-id="26572"></path><path d="M243.818095 0m30.472423 0l0 0q30.472423 0 30.472423 30.472423l0 158.4566q0 30.472423-30.472423 30.472424l0 0q-30.472423 0-30.472423-30.472424l0-158.4566q0-30.472423 30.472423-30.472423Z" fill="#08B3F7" p-id="26573"></path><path d="M481.502996 0m30.472423 0l0 0q30.472423 0 30.472423 30.472423l0 158.4566q0 30.472423-30.472423 30.472424l0 0q-30.472423 0-30.472423-30.472424l0-158.4566q0-30.472423 30.472423-30.472423Z" fill="#08B3F7" p-id="26574"></path><path d="M719.187896 0m30.472423 0l0 0q30.472423 0 30.472423 30.472423l0 158.4566q0 30.472423-30.472423 30.472424l0 0q-30.472423 0-30.472423-30.472424l0-158.4566q0-30.472423 30.472423-30.472423Z" fill="#08B3F7" p-id="26575"></path><path d="M570.743177 670.080713m13.13205 12.721398l121.077497 117.291287q13.13205 12.721398 0.410652 25.853448l0 0q-12.721398 13.13205-25.853448 0.410651l-121.077497-117.291287q-13.13205-12.721398-0.410651-25.853447l0 0q12.721398-13.13205 25.853447-0.410652Z" fill="#FFFFFF" p-id="26576"></path><path d="M470.837647 440.326514a152.362116 152.362116 0 1 0 152.362116 152.362116 152.362116 152.362116 0 0 0-152.362116-152.362116z m0 274.251809a121.889693 121.889693 0 1 1 121.889693-121.889693 121.889693 121.889693 0 0 1-121.889693 121.889693z" fill="#FFFFFF" p-id="26577"></path></svg>